{"accessors":[{"bufferView":0,"componentType":5126,"count":23311,"min":[37.145545959472659,3.011744976043701,-227.02870178222657],"max":[898.4570922851563,251.982666015625,-30.11748695373535],"type":"VEC3","name":"BuildingMesh-00011.001_vertices#0_POSITION"},{"bufferView":0,"byteOffset":12,"componentType":5120,"count":23311,"type":"VEC4","name":"BuildingMesh-00011.001_vertices#0_TANGENT"},{"bufferView":0,"byteOffset":16,"componentType":5120,"count":23311,"type":"VEC4","name":"BuildingMesh-00011.001_vertices#0_NORMAL"},{"bufferView":0,"byteOffset":20,"componentType":5122,"count":23311,"type":"VEC2","name":"BuildingMesh-00011.001_vertices#0_TEXCOORD_0"},{"bufferView":0,"byteOffset":24,"componentType":5122,"count":23311,"type":"VEC2","name":"BuildingMesh-00011.001_vertices#0_TEXCOORD_1"},{"bufferView":0,"byteOffset":28,"componentType":5123,"count":23311,"type":"VEC4","name":"BuildingMesh-00011.001_vertices#0_COLOR_0"},{"bufferView":1,"componentType":5123,"count":23730,"type":"SCALAR","name":"BuildingMesh-00011.001_indices#0"}],"asset":{"generator":"Extended Khronos glTF Blender I/O v1.0.0","version":"2.0","extensions":{"ASOBO_asset_optimized":{"BoundingBoxMax":[898.4678955078125,251.9810028076172,-30.117326736450197],"BoundingBoxMin":[37.145992279052737,3.0117251873016359,-227.02749633789063],"MajorVersion":4,"MinorVersion":2},"ASOBO_normal_map_convention":{"tangent_space_convention":"DirectX"}}},"bufferViews":[{"buffer":0,"byteLength":839196,"byteStride":36,"byteOffset":100,"target":34962,"name":"BufferViewVertexND"},{"buffer":0,"byteLength":47460,"byteOffset":839324,"target":34963,"name":"BufferViewIndex"}],"extensionsUsed":["ASOBO_normal_map_convention","MSFT_texture_dds","ASOBO_asset_optimized"],"extensionsRequired":["MSFT_texture_dds"],"materials":[{"name":"Material.193","pbrMetallicRoughness":{"metallicFactor":0.0,"roughnessFactor":0.5,"baseColorTexture":{"index":0}}}],"meshes":[{"primitives":[{"attributes":{"COLOR_0":5,"NORMAL":2,"POSITION":0,"TANGENT":1,"TEXCOORD_0":3,"TEXCOORD_1":4},"indices":6,"material":0,"mode":4,"extras":{"ASOBO_primitive":{"PrimitiveCount":7910,"VertexType":"VTX","VertexVersion":2}}}],"name":"BuildingMesh-00011.001"}],"nodes":[{"translation":[26.53103828430176,-37.31785583496094,29.164228439331056],"rotation":[0.0,0.0,0.7071067094802856,0.7071068286895752],"scale":[0.1953125,0.1953088790178299,0.195309117436409],"mesh":0,"name":"New"}],"scene":0,"scenes":[{"nodes":[0],"name":"Scene","extras":{"glTF2ExportSettings":{"export_extras":1,"export_format":"GLTF_SEPARATE","export_generate_guid":1,"export_texture_dir":"../texture","export_xml":1,"export_xml_file":"cristo","use_selection":1},"maps_models_importer_is_ref_matrix_valid":1,"maps_models_importer_ref_matrix":[0.000006920759915374219,-2.0473597049713136,-5.707740306854248,5.7133307456970219,5.54524040222168,0.000002565065187809523,-4.130391597747803,4.1344709396362309,0.000008615286787971855,0.000010416089025966356,-95.1143035888672,88.737060546875,8.658220862001794e-15,8.658220862001794e-15,-0.06634599715471268,0.06641136109828949]}}],"textures":[{"extensions":{"MSFT_texture_dds":{"source":0}}}],"buffers":[{"byteLength":886784,"uri":"cristo.bin"}],"images":[{"uri":"TEXTURE_CRISTO.PNG.DDS","name":"texture_cristo","extras":"ASOBO_image_converted_meta"}]}
