{"accessors":[{"bufferView":0,"componentType":5126,"count":570792,"min":[-6.259738922119141,-1.0134090185165406,-1.9120140075683594],"max":[32.74266052246094,0.6938419938087463,0.9176160097122192],"type":"VEC3","name":"bridge_vertices#0_POSITION"},{"bufferView":0,"byteOffset":12,"componentType":5120,"count":570792,"type":"VEC4","name":"bridge_vertices#0_TANGENT"},{"bufferView":0,"byteOffset":16,"componentType":5120,"count":570792,"type":"VEC4","name":"bridge_vertices#0_NORMAL"},{"bufferView":0,"byteOffset":20,"componentType":5122,"count":570792,"type":"VEC2","name":"bridge_vertices#0_TEXCOORD_0"},{"bufferView":0,"byteOffset":24,"componentType":5122,"count":570792,"type":"VEC2","name":"bridge_vertices#0_TEXCOORD_1"},{"bufferView":0,"byteOffset":28,"componentType":5123,"count":570792,"type":"VEC4","name":"bridge_vertices#0_COLOR_0"},{"bufferView":1,"componentType":5123,"count":570792,"type":"SCALAR","name":"bridge_indices#8"}],"asset":{"generator":"Extended Khronos glTF Blender I/O v1.0.0","version":"2.0","extensions":{"ASOBO_asset_optimized":{"BoundingBoxMax":[32.74266052246094,0.6938419938087463,0.9176160097122192],"BoundingBoxMin":[-6.259738922119141,-1.0134090185165406,-1.9120140075683594],"MajorVersion":4,"MinorVersion":2},"ASOBO_normal_map_convention":{"tangent_space_convention":"DirectX"}}},"bufferViews":[{"buffer":0,"byteLength":20548512,"byteStride":36,"byteOffset":96,"target":34962,"name":"BufferViewVertexND"},{"buffer":0,"byteLength":1141584,"byteOffset":20548656,"target":34963,"name":"BufferViewIndex"}],"extensionsUsed":["ASOBO_normal_map_convention","MSFT_texture_dds","ASOBO_asset_optimized"],"extensionsRequired":["MSFT_texture_dds"],"materials":[{"name":"material_0","pbrMetallicRoughness":{"metallicFactor":0.0,"roughnessFactor":0.5,"baseColorTexture":{"index":0}}}],"meshes":[{"primitives":[{"attributes":{"COLOR_0":5,"NORMAL":2,"POSITION":0,"TANGENT":1,"TEXCOORD_0":3,"TEXCOORD_1":4},"indices":6,"material":0,"mode":4,"extras":{"ASOBO_primitive":{"PrimitiveCount":21843,"VertexType":"VTX","VertexVersion":2}}},{"attributes":{"COLOR_0":5,"NORMAL":2,"POSITION":0,"TANGENT":1,"TEXCOORD_0":3,"TEXCOORD_1":4},"indices":6,"material":0,"mode":4,"extras":{"ASOBO_primitive":{"BaseVertexIndex":65529,"PrimitiveCount":21843,"StartIndex":65529,"VertexType":"VTX","VertexVersion":2}}},{"attributes":{"COLOR_0":5,"NORMAL":2,"POSITION":0,"TANGENT":1,"TEXCOORD_0":3,"TEXCOORD_1":4},"indices":6,"material":0,"mode":4,"extras":{"ASOBO_primitive":{"BaseVertexIndex":131058,"PrimitiveCount":21843,"StartIndex":131058,"VertexType":"VTX","VertexVersion":2}}},{"attributes":{"COLOR_0":5,"NORMAL":2,"POSITION":0,"TANGENT":1,"TEXCOORD_0":3,"TEXCOORD_1":4},"indices":6,"material":0,"mode":4,"extras":{"ASOBO_primitive":{"BaseVertexIndex":196587,"PrimitiveCount":21843,"StartIndex":196587,"VertexType":"VTX","VertexVersion":2}}},{"attributes":{"COLOR_0":5,"NORMAL":2,"POSITION":0,"TANGENT":1,"TEXCOORD_0":3,"TEXCOORD_1":4},"indices":6,"material":0,"mode":4,"extras":{"ASOBO_primitive":{"BaseVertexIndex":262116,"PrimitiveCount":21843,"StartIndex":262116,"VertexType":"VTX","VertexVersion":2}}},{"attributes":{"COLOR_0":5,"NORMAL":2,"POSITION":0,"TANGENT":1,"TEXCOORD_0":3,"TEXCOORD_1":4},"indices":6,"material":0,"mode":4,"extras":{"ASOBO_primitive":{"BaseVertexIndex":327645,"PrimitiveCount":21843,"StartIndex":327645,"VertexType":"VTX","VertexVersion":2}}},{"attributes":{"COLOR_0":5,"NORMAL":2,"POSITION":0,"TANGENT":1,"TEXCOORD_0":3,"TEXCOORD_1":4},"indices":6,"material":0,"mode":4,"extras":{"ASOBO_primitive":{"BaseVertexIndex":393174,"PrimitiveCount":21843,"StartIndex":393174,"VertexType":"VTX","VertexVersion":2}}},{"attributes":{"COLOR_0":5,"NORMAL":2,"POSITION":0,"TANGENT":1,"TEXCOORD_0":3,"TEXCOORD_1":4},"indices":6,"material":0,"mode":4,"extras":{"ASOBO_primitive":{"BaseVertexIndex":458703,"PrimitiveCount":21843,"StartIndex":458703,"VertexType":"VTX","VertexVersion":2}}},{"attributes":{"COLOR_0":5,"NORMAL":2,"POSITION":0,"TANGENT":1,"TEXCOORD_0":3,"TEXCOORD_1":4},"indices":6,"material":0,"mode":4,"extras":{"ASOBO_primitive":{"BaseVertexIndex":524232,"PrimitiveCount":15520,"StartIndex":524232,"VertexType":"VTX","VertexVersion":2}}}],"name":"bridge"}],"nodes":[{"rotation":[0.7071068286895752,0.0,0.0,0.7071067094802856],"mesh":0,"name":"bridge"}],"scene":0,"scenes":[{"nodes":[0],"name":"Scene","extras":{"maps_models_importer_is_ref_matrix_valid":1,"maps_models_importer_ref_matrix":[2.7197418212890627,-0.1890501081943512,98.9263916015625,-99.02749633789063,0.5121881365776062,1.0082393884658812,10.255099296569825,-10.234530448913575,0.00018573596025817096,0.00971094612032175,-104.56599426269533,101.43173217773438,4.988624964508137e-12,0,-0.06634677946567536,0.06641090661287308]}}],"textures":[{"extensions":{"MSFT_texture_dds":{"source":0}}}],"buffers":[{"byteLength":21690240,"uri":"bridge.bin"}],"images":[{"uri":"BRIDGE_TEXTURE.PNG.DDS","name":"bridge_texture","extras":"ASOBO_image_converted_meta"}]}
